# Blender v2.79 (sub 0) OBJ File: ''
# www.blender.org
mtllib warpplate.mtl
o Cube.001
v 1.000000 1.000000 0.000000
v 1.000000 0.000000 0.000000
v 0.000000 0.000000 0.000000
v 0.000000 1.000000 0.000000
v 0.000000 -0.000000 0.062500
v 0.125000 0.125000 0.062500
v 0.125000 0.875000 0.062500
v 0.000000 1.000000 0.062500
v 1.000000 1.000000 0.062500
v 1.000000 -0.000000 0.062500
v 0.875000 0.125000 0.062500
v 0.781250 0.218750 0.125000
v 0.218750 0.218750 0.125000
v 0.875000 0.875000 0.062500
v 0.781250 0.781250 0.125000
v 0.218750 0.781250 0.125000
vt 0.500000 0.500000
vt 0.000000 0.500000
vt 0.000000 0.000000
vt 0.500000 0.000000
vt 0.000000 1.000000
vt 0.062500 0.937500
vt 0.062500 0.562500
vt 0.000000 0.500000
vt 0.625000 0.500000
vt 0.625000 0.000000
vt 0.500000 0.000000
vt 0.500000 0.125000
vt 1.000000 0.125000
vt 1.000000 0.000000
vt 0.500000 0.000000
vt 0.875000 0.500000
vt 1.000000 0.500000
vt 1.000000 0.000000
vt 0.875000 0.000000
vt 0.500000 0.500000
vt 1.000000 0.500000
vt 1.000000 0.375000
vt 0.500000 0.375000
vt 0.437500 0.937500
vt 0.375000 0.875000
vt 0.125000 0.875000
vt 0.437500 0.562500
vt 0.500000 1.000000
vt 0.375000 0.625000
vt 0.125000 0.625000
vn 0.0000 0.0000 -1.0000
vn 0.0000 -0.0000 1.0000
vn 1.0000 0.0000 0.0000
vn 0.0000 -1.0000 -0.0000
vn -1.0000 0.0000 0.0000
vn 0.0000 1.0000 0.0000
vn 0.0000 -0.5547 0.8321
vn 0.5547 -0.0000 0.8321
vn -0.5547 -0.0000 0.8321
vn 0.0000 0.5547 0.8321
usemtl Material.001
s 1
f 1/1/1 2/2/1 3/3/1 4/4/1
f 5/5/2 6/6/2 7/7/2 8/8/2
f 1/1/3 9/9/3 10/10/3 2/11/3
f 2/12/4 10/13/4 5/14/4 3/15/4
f 3/16/5 5/17/5 8/18/5 4/19/5
f 9/20/6 1/21/6 4/22/6 8/23/6
f 11/24/7 12/25/7 13/26/7 6/6/7
f 8/8/2 7/7/2 14/27/2 9/20/2
f 10/28/2 11/24/2 6/6/2 5/5/2
f 9/20/2 14/27/2 11/24/2 10/28/2
f 15/29/2 16/30/2 13/26/2 12/25/2
f 14/27/8 15/29/8 12/25/8 11/24/8
f 6/6/9 13/26/9 16/30/9 7/7/9
f 7/7/10 16/30/10 15/29/10 14/27/10
